NotoSansGothic-Regular.ufo
<glyph name="uni0304" format="2">
  <unicode hex="0304"/>
  <anchor x="-323" y="606" name="_top"/>
  <outline>
    <contour>
      <point x="-473" y="606" type="line"/>
      <point x="-176" y="606" type="line"/>
      <point x="-176" y="677" type="line"/>
      <point x="-473" y="677" type="line"/>
    </contour>
  </outline>
</glyph>
<glyph name="uni0305" format="2">
  <unicode hex="0305"/>
  <anchor x="0" y="0" name="_bottomleft"/>
  <outline>
    <contour>
      <point x="-5" y="904" type="line"/>
      <point x="659" y="904" type="line"/>
      <point x="659" y="975" type="line"/>
      <point x="-5" y="975" type="line"/>
    </contour>
  </outline>
</glyph>
<glyph name="uni0331" format="2">
  <unicode hex="0331"/>
  <anchor x="0" y="0" name="_bottom"/>
  <outline>
    <contour>
      <point x="-148" y="-147" type="line"/>
      <point x="149" y="-147" type="line"/>
      <point x="149" y="-76" type="line"/>
      <point x="-148" y="-76" type="line"/>
    </contour>
  </outline>
</glyph>
<glyph name="u10330" format="2">
  <advance width="609"/>
  <unicode hex="10330"/>
  <anchor x="400" y="0" name="bottom"/>
  <anchor x="0" y="0" name="bottomleft"/>
  <anchor x="317" y="732" name="top"/>
  <outline>
    <contour>
      <point x="103" y="-188" type="line"/>
      <point x="193" y="-148" type="line"/>
      <point x="193" y="207" type="line" smooth="yes"/>
      <point x="193" y="296"/>
      <point x="209" y="368"/>
      <point x="242" y="418" type="curve"/>
      <point x="508" y="0" type="line"/>
      <point x="613" y="0" type="line"/>
      <point x="199" y="646" type="line"/>
      <point x="95" y="646" type="line"/>
      <point x="233" y="432" type="line"/>
      <point x="151" y="432" type="line"/>
      <point x="120" y="383"/>
      <point x="103" y="310"/>
      <point x="103" y="216" type="curve" smooth="yes"/>
    </contour>
  </outline>
</glyph>
<glyph name="u10331" format="2">
  <advance width="631"/>
  <unicode hex="10331"/>
  <anchor x="273" y="0" name="bottom"/>
  <anchor x="0" y="0" name="bottomleft"/>
  <anchor x="258" y="732" name="top"/>
  <outline>
    <contour>
      <point x="97" y="0" type="line"/>
      <point x="286" y="0" type="line" smooth="yes"/>
      <point x="445" y="0"/>
      <point x="580" y="66"/>
      <point x="580" y="207" type="curve" smooth="yes"/>
      <point x="580" y="313"/>
      <point x="488" y="371"/>
      <point x="356" y="380" type="curve"/>
      <point x="356" y="384" type="line"/>
      <point x="425" y="411"/>
      <point x="482" y="451"/>
      <point x="482" y="534" type="curve" smooth="yes"/>
      <point x="482" y="608"/>
      <point x="429" y="652"/>
      <point x="358" y="673" type="curve"/>
      <point x="322" y="609" type="line"/>
      <point x="362" y="594"/>
      <point x="389" y="564"/>
      <point x="389" y="522" type="curve" smooth="yes"/>
      <point x="389" y="464"/>
      <point x="344" y="432"/>
      <point x="253" y="404" type="curve"/>
      <point x="253" y="336" type="line"/>
      <point x="426" y="324"/>
      <point x="487" y="275"/>
      <point x="487" y="201" type="curve" smooth="yes"/>
      <point x="487" y="145"/>
      <point x="444" y="76"/>
      <point x="269" y="76" type="curve" smooth="yes"/>
      <point x="187" y="76" type="line"/>
      <point x="187" y="646" type="line"/>
      <point x="97" y="646" type="line"/>
    </contour>
  </outline>
</glyph>
<glyph name="u10332" format="2">
  <advance width="524"/>
  <unicode hex="10332"/>
  <anchor x="302" y="0" name="bottom"/>
  <anchor x="0" y="0" name="bottomleft"/>
  <anchor x="302" y="732" name="top"/>
  <outline>
    <contour>
      <point x="97" y="0" type="line"/>
      <point x="187" y="0" type="line"/>
      <point x="187" y="566" type="line"/>
      <point x="500" y="566" type="line"/>
      <point x="500" y="646" type="line"/>
      <point x="97" y="646" type="line"/>
    </contour>
  </outline>
</glyph>
<glyph name="u10333" format="2">
  <advance width="689"/>
  <unicode hex="10333"/>
  <anchor x="263" y="0" name="bottom"/>
  <anchor x="0" y="0" name="bottomleft"/>
  <anchor x="292" y="732" name="top"/>
  <outline>
    <contour>
      <point x="260" y="-10" type="curve" smooth="yes"/>
      <point x="387" y="-10"/>
      <point x="466" y="69"/>
      <point x="478" y="171" type="curve"/>
      <point x="587" y="0" type="line"/>
      <point x="693" y="0" type="line"/>
      <point x="278" y="646" type="line"/>
      <point x="173" y="646" type="line"/>
      <point x="356" y="362" type="line" smooth="yes"/>
      <point x="388" y="313"/>
      <point x="405" y="269"/>
      <point x="405" y="211" type="curve" smooth="yes"/>
      <point x="405" y="141"/>
      <point x="364" y="66"/>
      <point x="267" y="66" type="curve" smooth="yes"/>
      <point x="182" y="66"/>
      <point x="138" y="124"/>
      <point x="138" y="203" type="curve" smooth="yes"/>
      <point x="138" y="260"/>
      <point x="167" y="307"/>
      <point x="194" y="333" type="curve"/>
      <point x="95" y="333" type="line"/>
      <point x="65" y="298"/>
      <point x="45" y="251"/>
      <point x="45" y="192" type="curve" smooth="yes"/>
      <point x="45" y="80"/>
      <point x="115" y="-10"/>
    </contour>
  </outline>
</glyph>
<glyph name="u10334" format="2">
  <advance width="667"/>
  <unicode hex="10334"/>
  <anchor x="371" y="0" name="bottom"/>
  <anchor x="0" y="0" name="bottomleft"/>
  <anchor x="371" y="732" name="top"/>
  <outline>
    <contour>
      <point x="381" y="-10" type="curve" smooth="yes"/>
      <point x="480" y="-10"/>
      <point x="574" y="25"/>
      <point x="642" y="105" type="curve"/>
      <point x="593" y="161" type="line"/>
      <point x="538" y="102"/>
      <point x="472" y="69"/>
      <point x="386" y="69" type="curve" smooth="yes"/>
      <point x="250" y="69"/>
      <point x="162" y="155"/>
      <point x="156" y="291" type="curve"/>
      <point x="586" y="291" type="line"/>
      <point x="586" y="369" type="line"/>
      <point x="158" y="369" type="line"/>
      <point x="173" y="504"/>
      <point x="271" y="575"/>
      <point x="392" y="575" type="curve" smooth="yes"/>
      <point x="480" y="575"/>
      <point x="543" y="541"/>
      <point x="587" y="497" type="curve"/>
      <point x="637" y="563" type="line"/>
      <point x="594" y="608"/>
      <point x="516" y="655"/>
      <point x="397" y="655" type="curve" smooth="yes"/>
      <point x="206" y="655"/>
      <point x="61" y="531"/>
      <point x="61" y="316" type="curve" smooth="yes"/>
      <point x="61" y="125"/>
      <point x="177" y="-10"/>
    </contour>
  </outline>
</glyph>
<glyph name="u10335" format="2">
  <advance width="741"/>
  <unicode hex="10335"/>
  <anchor x="400" y="0" name="bottom"/>
  <anchor x="0" y="0" name="bottomleft"/>
  <anchor x="370" y="732" name="top"/>
  <outline>
    <contour>
      <point x="396" y="-10" type="curve" smooth="yes"/>
      <point x="490" y="-10"/>
      <point x="586" y="6"/>
      <point x="644" y="22" type="curve"/>
      <point x="644" y="646" type="line"/>
      <point x="554" y="646" type="line"/>
      <point x="554" y="83" type="line"/>
      <point x="521" y="75"/>
      <point x="462" y="68"/>
      <point x="396" y="68" type="curve" smooth="yes"/>
      <point x="265" y="68"/>
      <point x="184" y="117"/>
      <point x="184" y="275" type="curve" smooth="yes"/>
      <point x="184" y="646" type="line"/>
      <point x="94" y="646" type="line"/>
      <point x="94" y="263" type="line" smooth="yes"/>
      <point x="94" y="98"/>
      <point x="176" y="-10"/>
    </contour>
  </outline>
</glyph>
<glyph name="u10336" format="2">
  <advance width="622"/>
  <unicode hex="10336"/>
  <anchor x="317" y="0" name="bottom"/>
  <anchor x="0" y="0" name="bottomleft"/>
  <anchor x="292" y="732" name="top"/>
  <outline>
    <contour>
      <point x="48" y="0" type="line"/>
      <point x="597" y="0" type="line"/>
      <point x="597" y="80" type="line"/>
      <point x="156" y="80" type="line"/>
      <point x="543" y="578" type="line"/>
      <point x="543" y="646" type="line"/>
      <point x="30" y="646" type="line"/>
      <point x="30" y="566" type="line"/>
      <point x="435" y="566" type="line"/>
      <point x="48" y="68" type="line"/>
    </contour>
  </outline>
</glyph>
<glyph name="u10337" format="2">
  <advance width="741"/>
  <unicode hex="10337"/>
  <anchor x="371" y="0" name="bottom"/>
  <anchor x="0" y="0" name="bottomleft"/>
  <anchor x="390" y="732" name="top"/>
  <outline>
    <contour>
      <point x="97" y="0" type="line"/>
      <point x="187" y="0" type="line"/>
      <point x="187" y="559" type="line"/>
      <point x="220" y="567"/>
      <point x="269" y="574"/>
      <point x="326" y="574" type="curve" smooth="yes"/>
      <point x="476" y="574"/>
      <point x="557" y="525"/>
      <point x="557" y="367" type="curve" smooth="yes"/>
      <point x="557" y="0" type="line"/>
      <point x="647" y="0" type="line"/>
      <point x="647" y="379" type="line" smooth="yes"/>
      <point x="647" y="544"/>
      <point x="565" y="652"/>
      <point x="334" y="652" type="curve" smooth="yes"/>
      <point x="277" y="652"/>
      <point x="229" y="648"/>
      <point x="187" y="640" type="curve"/>
      <point x="187" y="834" type="line"/>
      <point x="97" y="834" type="line"/>
    </contour>
  </outline>
</glyph>
<glyph name="u10338" format="2">
  <advance width="898"/>
  <unicode hex="10338"/>
  <anchor x="449" y="-196" name="bottom"/>
  <anchor x="0" y="0" name="bottomleft"/>
  <anchor x="449" y="878" name="top"/>
  <outline>
    <contour>
      <point x="405" y="-240" type="line"/>
      <point x="495" y="-200" type="line"/>
      <point x="495" y="51" type="line"/>
      <point x="688" y="65"/>
      <point x="841" y="197"/>
      <point x="841" y="448" type="curve" smooth="yes"/>
      <point x="841" y="518"/>
      <point x="821" y="606"/>
      <point x="799" y="646" type="curve"/>
      <point x="706" y="646" type="line"/>
      <point x="725" y="606"/>
      <point x="748" y="529"/>
      <point x="748" y="452" type="curve" smooth="yes"/>
      <point x="748" y="246"/>
      <point x="635" y="146"/>
      <point x="495" y="133" type="curve"/>
      <point x="495" y="834" type="line"/>
      <point x="405" y="834" type="line"/>
      <point x="405" y="133" type="line"/>
      <point x="265" y="146"/>
      <point x="152" y="246"/>
      <point x="152" y="452" type="curve" smooth="yes"/>
      <point x="152" y="523"/>
      <point x="176" y="606"/>
      <point x="195" y="646" type="curve"/>
      <point x="101" y="646" type="line"/>
      <point x="80" y="603"/>
      <point x="59" y="518"/>
      <point x="59" y="448" type="curve" smooth="yes"/>
      <point x="59" y="197"/>
      <point x="212" y="65"/>
      <point x="405" y="51" type="curve"/>
    </contour>
  </outline>
</glyph>
<glyph name="u10339" format="2">
  <advance width="284"/>
  <unicode hex="10339"/>
  <anchor x="136" y="0" name="bottom"/>
  <anchor x="0" y="0" name="bottomleft"/>
  <anchor x="136" y="732" name="top"/>
  <outline>
    <contour>
      <point x="97" y="0" type="line"/>
      <point x="187" y="0" type="line"/>
      <point x="187" y="646" type="line"/>
      <point x="97" y="646" type="line"/>
    </contour>
  </outline>
</glyph>
<glyph name="u1033A" format="2">
  <advance width="642"/>
  <unicode hex="1033A"/>
  <anchor x="312" y="0" name="bottom"/>
  <anchor x="0" y="0" name="bottomleft"/>
  <anchor x="332" y="732" name="top"/>
  <outline>
    <contour>
      <point x="97" y="0" type="line"/>
      <point x="187" y="0" type="line"/>
      <point x="187" y="324" type="line"/>
      <point x="511" y="0" type="line"/>
      <point x="635" y="0" type="line"/>
      <point x="298" y="333" type="line"/>
      <point x="513" y="458"/>
      <point x="552" y="515"/>
      <point x="594" y="646" type="curve"/>
      <point x="499" y="646" type="line"/>
      <point x="466" y="553"/>
      <point x="447" y="499"/>
      <point x="187" y="352" type="curve"/>
      <point x="187" y="646" type="line"/>
      <point x="97" y="646" type="line"/>
    </contour>
  </outline>
</glyph>
<glyph name="u1033B" format="2">
  <advance width="642"/>
  <unicode hex="1033B"/>
  <anchor x="332" y="0" name="bottom"/>
  <anchor x="0" y="0" name="bottomleft"/>
  <anchor x="258" y="732" name="top"/>
  <outline>
    <contour>
      <point x="24" y="0" type="line"/>
      <point x="118" y="0" type="line"/>
      <point x="279" y="411" type="line"/>
      <point x="541" y="0" type="line"/>
      <point x="646" y="0" type="line"/>
      <point x="232" y="646" type="line"/>
      <point x="128" y="646" type="line"/>
      <point x="225" y="494" type="line"/>
    </contour>
  </outline>
</glyph>
<glyph name="u1033C" format="2">
  <advance width="801"/>
  <unicode hex="1033C"/>
  <anchor x="390" y="0" name="bottom"/>
  <anchor x="0" y="0" name="bottomleft"/>
  <anchor x="390" y="732" name="top"/>
  <outline>
    <contour>
      <point x="97" y="0" type="line"/>
      <point x="187" y="0" type="line"/>
      <point x="187" y="469" type="line"/>
      <point x="221" y="386"/>
      <point x="311" y="309"/>
      <point x="397" y="309" type="curve" smooth="yes"/>
      <point x="492" y="309"/>
      <point x="577" y="390"/>
      <point x="613" y="469" type="curve"/>
      <point x="613" y="0" type="line"/>
      <point x="703" y="0" type="line"/>
      <point x="703" y="646" type="line"/>
      <point x="613" y="646" type="line"/>
      <point x="588" y="527"/>
      <point x="490" y="399"/>
      <point x="400" y="399" type="curve" smooth="yes"/>
      <point x="302" y="399"/>
      <point x="209" y="536"/>
      <point x="187" y="646" type="curve"/>
      <point x="97" y="646" type="line"/>
    </contour>
  </outline>
</glyph>
<glyph name="u1033D" format="2">
  <advance width="760"/>
  <unicode hex="1033D"/>
  <anchor x="380" y="0" name="bottom"/>
  <anchor x="0" y="0" name="bottomleft"/>
  <anchor x="380" y="732" name="top"/>
  <outline>
    <contour>
      <point x="97" y="0" type="line"/>
      <point x="187" y="0" type="line"/>
      <point x="187" y="289" type="line" smooth="yes"/>
      <point x="187" y="371"/>
      <point x="184" y="459"/>
      <point x="178" y="517" type="curve"/>
      <point x="182" y="517" type="line"/>
      <point x="573" y="0" type="line"/>
      <point x="663" y="0" type="line"/>
      <point x="663" y="646" type="line"/>
      <point x="573" y="646" type="line"/>
      <point x="573" y="329" type="line" smooth="yes"/>
      <point x="573" y="253"/>
      <point x="576" y="180"/>
      <point x="581" y="131" type="curve"/>
      <point x="577" y="131" type="line"/>
      <point x="554" y="169"/>
      <point x="210" y="608"/>
      <point x="187" y="646" type="curve"/>
      <point x="97" y="646" type="line"/>
    </contour>
  </outline>
</glyph>
<glyph name="u1033E" format="2">
  <advance width="713"/>
  <unicode hex="1033E"/>
  <anchor x="292" y="0" name="bottom"/>
  <anchor x="0" y="0" name="bottomleft"/>
  <anchor x="380" y="732" name="top"/>
  <outline>
    <contour>
      <point x="404" y="-240" type="curve"/>
      <point x="513" y="-240" type="line"/>
      <point x="616" y="-139"/>
      <point x="656" y="-19"/>
      <point x="656" y="102" type="curve" smooth="yes"/>
      <point x="656" y="141"/>
      <point x="649" y="190"/>
      <point x="644" y="209" type="curve"/>
      <point x="562" y="209" type="line"/>
      <point x="543" y="147"/>
      <point x="487" y="68"/>
      <point x="372" y="68" type="curve" smooth="yes"/>
      <point x="250" y="68"/>
      <point x="155" y="151"/>
      <point x="155" y="318" type="curve" smooth="yes"/>
      <point x="155" y="478"/>
      <point x="248" y="575"/>
      <point x="392" y="575" type="curve" smooth="yes"/>
      <point x="487" y="575"/>
      <point x="547" y="541"/>
      <point x="596" y="495" type="curve"/>
      <point x="647" y="563" type="line"/>
      <point x="604" y="607"/>
      <point x="526" y="655"/>
      <point x="393" y="655" type="curve" smooth="yes"/>
      <point x="194" y="655"/>
      <point x="61" y="523"/>
      <point x="61" y="316" type="curve" smooth="yes"/>
      <point x="61" y="120"/>
      <point x="180" y="-10"/>
      <point x="361" y="-10" type="curve" smooth="yes"/>
      <point x="477" y="-10"/>
      <point x="534" y="43"/>
      <point x="567" y="87" type="curve"/>
      <point x="567" y="81"/>
      <point x="567" y="74"/>
      <point x="567" y="68" type="curve" smooth="yes"/>
      <point x="567" y="-47"/>
      <point x="508" y="-149"/>
    </contour>
  </outline>
</glyph>
<glyph name="u1033F" format="2">
  <advance width="741"/>
  <unicode hex="1033F"/>
  <anchor x="361" y="0" name="bottom"/>
  <anchor x="0" y="0" name="bottomleft"/>
  <anchor x="361" y="732" name="top"/>
  <outline>
    <contour>
      <point x="97" y="0" type="line"/>
      <point x="187" y="0" type="line"/>
      <point x="187" y="561" type="line"/>
      <point x="220" y="569"/>
      <point x="279" y="576"/>
      <point x="345" y="576" type="curve" smooth="yes"/>
      <point x="476" y="576"/>
      <point x="557" y="527"/>
      <point x="557" y="369" type="curve" smooth="yes"/>
      <point x="557" y="0" type="line"/>
      <point x="647" y="0" type="line"/>
      <point x="647" y="381" type="line" smooth="yes"/>
      <point x="647" y="546"/>
      <point x="565" y="654"/>
      <point x="345" y="654" type="curve" smooth="yes"/>
      <point x="251" y="654"/>
      <point x="155" y="638"/>
      <point x="97" y="622" type="curve"/>
    </contour>
  </outline>
</glyph>
<glyph name="u10340" format="2">
  <advance width="731"/>
  <unicode hex="10340"/>
  <anchor x="361" y="0" name="bottom"/>
  <anchor x="0" y="0" name="bottomleft"/>
  <anchor x="361" y="732" name="top"/>
  <outline>
    <contour>
      <point x="97" y="0" type="line"/>
      <point x="187" y="0" type="line"/>
      <point x="187" y="567" type="line"/>
      <point x="543" y="567" type="line"/>
      <point x="543" y="0" type="line"/>
      <point x="633" y="0" type="line"/>
      <point x="633" y="646" type="line"/>
      <point x="97" y="646" type="line"/>
    </contour>
  </outline>
</glyph>
<glyph name="u10341" format="2">
  <advance width="710"/>
  <unicode hex="10341"/>
  <anchor x="332" y="0" name="bottom"/>
  <anchor x="0" y="0" name="bottomleft"/>
  <anchor x="361" y="732" name="top"/>
  <outline>
    <contour>
      <point x="523" y="-240" type="line"/>
      <point x="613" y="-200" type="line"/>
      <point x="613" y="646" type="line"/>
      <point x="523" y="646" type="line"/>
      <point x="523" y="175" type="line"/>
      <point x="467" y="155"/>
      <point x="397" y="140"/>
      <point x="330" y="140" type="curve" smooth="yes"/>
      <point x="222" y="140"/>
      <point x="182" y="208"/>
      <point x="182" y="294" type="curve" smooth="yes"/>
      <point x="182" y="646" type="line"/>
      <point x="92" y="646" type="line"/>
      <point x="92" y="281" type="line" smooth="yes"/>
      <point x="92" y="141"/>
      <point x="175" y="61"/>
      <point x="319" y="61" type="curve" smooth="yes"/>
      <point x="391" y="61"/>
      <point x="462" y="77"/>
      <point x="523" y="100" type="curve"/>
    </contour>
  </outline>
</glyph>
<glyph name="u10342" format="2">
  <advance width="635"/>
  <unicode hex="10342"/>
  <anchor x="390" y="0" name="bottom"/>
  <anchor x="0" y="0" name="bottomleft"/>
  <anchor x="258" y="732" name="top"/>
  <outline>
    <contour>
      <point x="97" y="-240" type="line"/>
      <point x="187" y="-200" type="line"/>
      <point x="187" y="312" type="line"/>
      <point x="508" y="0" type="line"/>
      <point x="639" y="0" type="line"/>
      <point x="310" y="311" type="line"/>
      <point x="438" y="355"/>
      <point x="505" y="423"/>
      <point x="505" y="509" type="curve" smooth="yes"/>
      <point x="505" y="592"/>
      <point x="446" y="641"/>
      <point x="340" y="671" type="curve"/>
      <point x="306" y="602" type="line"/>
      <point x="373" y="580"/>
      <point x="412" y="555"/>
      <point x="412" y="497" type="curve" smooth="yes"/>
      <point x="412" y="424"/>
      <point x="322" y="375"/>
      <point x="187" y="332" type="curve"/>
      <point x="187" y="646" type="line"/>
      <point x="97" y="646" type="line"/>
    </contour>
  </outline>
</glyph>
<glyph name="u10343" format="2">
  <advance width="574"/>
  <unicode hex="10343"/>
  <anchor x="292" y="0" name="bottom"/>
  <anchor x="0" y="0" name="bottomleft"/>
  <anchor x="292" y="732" name="top"/>
  <outline>
    <contour>
      <point x="267" y="-10" type="curve" smooth="yes"/>
      <point x="430" y="-10"/>
      <point x="524" y="56"/>
      <point x="524" y="175" type="curve" smooth="yes"/>
      <point x="524" y="296"/>
      <point x="428" y="331"/>
      <point x="303" y="358" type="curve" smooth="yes"/>
      <point x="180" y="385"/>
      <point x="138" y="408"/>
      <point x="138" y="477" type="curve" smooth="yes"/>
      <point x="138" y="543"/>
      <point x="192" y="579"/>
      <point x="291" y="579" type="curve" smooth="yes"/>
      <point x="386" y="579"/>
      <point x="443" y="548"/>
      <point x="483" y="514" type="curve"/>
      <point x="529" y="585" type="line"/>
      <point x="493" y="617"/>
      <point x="422" y="658"/>
      <point x="295" y="658" type="curve" smooth="yes"/>
      <point x="162" y="658"/>
      <point x="47" y="602"/>
      <point x="47" y="474" type="curve" smooth="yes"/>
      <point x="47" y="370"/>
      <point x="111" y="321"/>
      <point x="241" y="290" type="curve" smooth="yes"/>
      <point x="371" y="259"/>
      <point x="434" y="238"/>
      <point x="434" y="169" type="curve" smooth="yes"/>
      <point x="434" y="109"/>
      <point x="390" y="68"/>
      <point x="273" y="68" type="curve" smooth="yes"/>
      <point x="193" y="68"/>
      <point x="112" y="96"/>
      <point x="55" y="127" type="curve"/>
      <point x="55" y="38" type="line"/>
      <point x="109" y="9"/>
      <point x="183" y="-10"/>
    </contour>
  </outline>
</glyph>
<glyph name="u10344" format="2">
  <advance width="556"/>
  <unicode hex="10344"/>
  <anchor x="278" y="0" name="bottom"/>
  <anchor x="0" y="0" name="bottomleft"/>
  <anchor x="278" y="732" name="top"/>
  <outline>
    <contour>
      <point x="233" y="0" type="line"/>
      <point x="323" y="0" type="line"/>
      <point x="323" y="567" type="line"/>
      <point x="545" y="567" type="line"/>
      <point x="545" y="646" type="line"/>
      <point x="10" y="646" type="line"/>
      <point x="10" y="567" type="line"/>
      <point x="233" y="567" type="line"/>
    </contour>
  </outline>
</glyph>
<glyph name="u10345" format="2">
  <advance width="626"/>
  <unicode hex="10345"/>
  <anchor x="322" y="-196" name="bottom"/>
  <anchor x="0" y="0" name="bottomleft"/>
  <anchor x="322" y="732" name="top"/>
  <outline>
    <contour>
      <point x="273" y="-240" type="line"/>
      <point x="363" y="-200" type="line"/>
      <point x="363" y="155" type="line"/>
      <point x="631" y="646" type="line"/>
      <point x="534" y="646" type="line"/>
      <point x="318" y="241" type="line"/>
      <point x="97" y="646" type="line"/>
      <point x="-6" y="646" type="line"/>
      <point x="273" y="151" type="line"/>
    </contour>
  </outline>
</glyph>
<glyph name="u10346" format="2">
  <advance width="507"/>
  <unicode hex="10346"/>
  <anchor x="351" y="0" name="bottom"/>
  <anchor x="0" y="0" name="bottomleft"/>
  <anchor x="302" y="869" name="top"/>
  <outline>
    <contour>
      <point x="97" y="-240" type="line"/>
      <point x="187" y="-200" type="line"/>
      <point x="187" y="225" type="line"/>
      <point x="477" y="225" type="line"/>
      <point x="477" y="304" type="line"/>
      <point x="187" y="304" type="line"/>
      <point x="187" y="567" type="line"/>
      <point x="477" y="567" type="line"/>
      <point x="477" y="646" type="line"/>
      <point x="187" y="646" type="line"/>
      <point x="187" y="834" type="line"/>
      <point x="97" y="834" type="line"/>
    </contour>
  </outline>
</glyph>
<glyph name="u10347" format="2">
  <advance width="586"/>
  <unicode hex="10347"/>
  <anchor x="292" y="0" name="bottom"/>
  <anchor x="0" y="0" name="bottomleft"/>
  <anchor x="291" y="732" name="top"/>
  <outline>
    <contour>
      <point x="-1" y="0" type="line"/>
      <point x="99" y="0" type="line"/>
      <point x="291" y="280" type="line"/>
      <point x="480" y="0" type="line"/>
      <point x="587" y="0" type="line"/>
      <point x="350" y="338" type="line"/>
      <point x="571" y="646" type="line"/>
      <point x="470" y="646" type="line"/>
      <point x="294" y="393" type="line"/>
      <point x="119" y="646" type="line"/>
      <point x="15" y="646" type="line"/>
      <point x="235" y="336" type="line"/>
    </contour>
  </outline>
</glyph>
<glyph name="u10348" format="2">
  <advance width="781"/>
  <unicode hex="10348"/>
  <anchor x="400" y="0" name="bottom"/>
  <anchor x="0" y="0" name="bottomleft"/>
  <anchor x="400" y="732" name="top"/>
  <outline>
    <contour>
      <point x="391" y="-10" type="curve" smooth="yes"/>
      <point x="600" y="-10"/>
      <point x="720" y="141"/>
      <point x="720" y="323" type="curve" smooth="yes"/>
      <point x="720" y="522"/>
      <point x="599" y="657"/>
      <point x="392" y="657" type="curve" smooth="yes"/>
      <point x="201" y="657"/>
      <point x="61" y="524"/>
      <point x="61" y="324" type="curve" smooth="yes"/>
      <point x="61" y="138"/>
      <point x="173" y="-10"/>
    </contour>
    <contour>
      <point x="391" y="68" type="curve" smooth="yes"/>
      <point x="245" y="68"/>
      <point x="156" y="174"/>
      <point x="156" y="323" type="curve" smooth="yes"/>
      <point x="156" y="473"/>
      <point x="244" y="578"/>
      <point x="392" y="578" type="curve" smooth="yes"/>
      <point x="542" y="578"/>
      <point x="625" y="470"/>
      <point x="625" y="323" type="curve" smooth="yes"/>
      <point x="625" y="174"/>
      <point x="543" y="68"/>
    </contour>
    <contour>
      <point x="390" y="256" type="curve" smooth="yes"/>
      <point x="424" y="256"/>
      <point x="453" y="276"/>
      <point x="453" y="324" type="curve" smooth="yes"/>
      <point x="453" y="373"/>
      <point x="424" y="392"/>
      <point x="390" y="392" type="curve" smooth="yes"/>
      <point x="356" y="392"/>
      <point x="329" y="373"/>
      <point x="329" y="324" type="curve" smooth="yes"/>
      <point x="329" y="276"/>
      <point x="356" y="256"/>
    </contour>
  </outline>
</glyph>
<glyph name="u10349" format="2">
  <advance width="517"/>
  <unicode hex="10349"/>
  <anchor x="302" y="0" name="bottom"/>
  <anchor x="0" y="0" name="bottomleft"/>
  <anchor x="258" y="732" name="top"/>
  <outline>
    <contour>
      <point x="-26" y="-108" type="curve"/>
      <point x="86" y="-108" type="line"/>
      <point x="158" y="-17"/>
      <point x="219" y="58"/>
      <point x="268" y="124" type="curve"/>
      <point x="305" y="86"/>
      <point x="349" y="45"/>
      <point x="399" y="0" type="curve"/>
      <point x="535" y="0" type="line"/>
      <point x="447" y="74"/>
      <point x="376" y="136"/>
      <point x="319" y="193" type="curve"/>
      <point x="414" y="325"/>
      <point x="464" y="430"/>
      <point x="464" y="540" type="curve" smooth="yes"/>
      <point x="464" y="585"/>
      <point x="456" y="617"/>
      <point x="445" y="646" type="curve"/>
      <point x="82" y="646" type="line"/>
      <point x="71" y="621"/>
      <point x="58" y="590"/>
      <point x="58" y="533" type="curve" smooth="yes"/>
      <point x="58" y="417"/>
      <point x="94" y="318"/>
      <point x="212" y="184" type="curve"/>
      <point x="155" y="108"/>
      <point x="78" y="14"/>
    </contour>
    <contour>
      <point x="263" y="253" type="curve"/>
      <point x="183" y="347"/>
      <point x="148" y="429"/>
      <point x="148" y="530" type="curve" smooth="yes"/>
      <point x="148" y="545"/>
      <point x="149" y="557"/>
      <point x="151" y="568" type="curve"/>
      <point x="370" y="568" type="line"/>
      <point x="372" y="561"/>
      <point x="374" y="548"/>
      <point x="374" y="534" type="curve" smooth="yes"/>
      <point x="374" y="452"/>
      <point x="353" y="382"/>
    </contour>
  </outline>
</glyph>
<glyph name="u1034A" format="2">
  <advance width="464"/>
  <unicode hex="1034A"/>
  <anchor x="229" y="-196" name="bottom"/>
  <anchor x="0" y="0" name="bottomleft"/>
  <anchor x="229" y="732" name="top"/>
  <outline>
    <contour>
      <point x="187" y="-240" type="line"/>
      <point x="277" y="-200" type="line"/>
      <point x="277" y="560" type="line"/>
      <point x="410" y="469" type="line"/>
      <point x="448" y="527" type="line"/>
      <point x="232" y="673" type="line"/>
      <point x="16" y="527" type="line"/>
      <point x="54" y="469" type="line"/>
      <point x="187" y="560" type="line"/>
    </contour>
  </outline>
</glyph>
<glyph name="u10339.dieresis" format="2">
  <advance width="284"/>
  <anchor x="0" y="0" name="bottomleft"/>
  <outline>
    <contour>
      <point x="97" y="0" type="line"/>
      <point x="187" y="0" type="line"/>
      <point x="187" y="646" type="line"/>
      <point x="97" y="646" type="line"/>
    </contour>
    <contour>
      <point x="49" y="760" type="curve" smooth="yes"/>
      <point x="74" y="760"/>
      <point x="96" y="776"/>
      <point x="96" y="810" type="curve" smooth="yes"/>
      <point x="96" y="845"/>
      <point x="74" y="859"/>
      <point x="49" y="859" type="curve" smooth="yes"/>
      <point x="23" y="859"/>
      <point x="2" y="845"/>
      <point x="2" y="810" type="curve" smooth="yes"/>
      <point x="2" y="776"/>
      <point x="23" y="760"/>
    </contour>
    <contour>
      <point x="236" y="760" type="curve" smooth="yes"/>
      <point x="261" y="760"/>
      <point x="283" y="776"/>
      <point x="283" y="810" type="curve" smooth="yes"/>
      <point x="283" y="845"/>
      <point x="261" y="859"/>
      <point x="236" y="859" type="curve" smooth="yes"/>
      <point x="211" y="859"/>
      <point x="190" y="845"/>
      <point x="190" y="810" type="curve" smooth="yes"/>
      <point x="190" y="776"/>
      <point x="211" y="760"/>
    </contour>
  </outline>
</glyph>
<glyph name="uni0305.alt1" format="2">
  <note>
g40
</note>
  <anchor x="0" y="0" name="_bottomleft"/>
  <outline>
    <contour>
      <point x="-5" y="904" type="line"/>
      <point x="295" y="904" type="line"/>
      <point x="295" y="975" type="line"/>
      <point x="-5" y="975" type="line"/>
    </contour>
  </outline>
</glyph>
<glyph name="uni0305.alt3" format="2">
  <note>
g42
</note>
  <anchor x="0" y="0" name="_bottomleft"/>
  <outline>
    <contour>
      <point x="-5" y="904" type="line"/>
      <point x="908" y="904" type="line"/>
      <point x="908" y="975" type="line"/>
      <point x="-5" y="975" type="line"/>
    </contour>
  </outline>
</glyph>
